<svg id="Capa_1" enable-background="new 0 0 512 512" height="512" viewBox="0 0 512 512" width="512" xmlns="http://www.w3.org/2000/svg"><g><path d="m361.5 0c-39.854 0-77.443 15.577-105.5 43.252l-30 287.998 30 180.75h45v-361.5c0-33.36 27.141-60.5 60.5-60.5s60.5 27.14 60.5 60.5v361.5h90v-361.5c0-82.986-67.514-150.5-150.5-150.5z" fill="#ed2a94"/><path d="m150.5 0c-82.986 0-150.5 67.514-150.5 150.5v361.5h90v-361.5c0-33.36 27.141-60.5 60.5-60.5s60.5 27.14 60.5 60.5v361.5h45v-468.748c-28.057-27.675-65.646-43.252-105.5-43.252z" fill="#f55576"/></g></svg>